<mxfile host="app.diagrams.net" modified="2023-05-05T06:37:21.968Z" agent="Mozilla/5.0 (Macintosh; Intel Mac OS X 10_15_7) AppleWebKit/537.36 (KHTML, like Gecko) Chrome/112.0.0.0 Safari/537.36" version="21.2.3" etag="d5bDc1bKQeB1vOQL2d5B" type="github">
  <diagram name="第 1 页" id="Bza7Ziwm9xHQ_MiFzsCo">
    <mxGraphModel>
      <root>
        <mxCell id="0" />
        <mxCell id="1" parent="0" />
      </root>
    </mxGraphModel>
  </diagram>
</mxfile>
